<svg xmlns="http://www.w3.org/2000/svg" xmlns:xlink="http://www.w3.org/1999/xlink" height="800" width="1200" viewBox="-19.20465 -32 166.4403 192"><defs><linearGradient id="a"><stop offset="0" stop-color="#38aab0"/><stop offset="1" stop-color="#0f5f68"/></linearGradient><linearGradient y2="924.791" x2="62.66" y1="1004.077" x1="63.571" gradientUnits="userSpaceOnUse" id="b" xlink:href="#a"/></defs><path fill="url(#b)" d="M0 924.362h128v128H0z" transform="translate(.007 -924.362)"/><g transform="translate(-298.488 -341.568)"><path d="M335.2 370.918l4.096 4.681v54.43H335.2z" fill="#fff"/><path d="M335.78 371.885l4.153 4.634v53.51h-4.153z" fill="#fff"/><path d="M324.154 431.137c7.512.498 10.552-2.105 11.903-7.198l4.152.83c1.376 2.802 2.417 5.716 10.243 6.368v1.937h-26.575zm.032-65.749l5.493.732 2.013 1.099 46.686 52.545 14.464 1.464-6.042-8.788-43.573-48.333-19.04-.184z" fill="#fff" fill-rule="evenodd"/><path d="M324.186 365.388l5.493.732 2.013 1.099 46.686 52.545 14.464 1.464-6.042-8.788-43.573-48.333-19.04-.184z" fill="#fff" fill-rule="evenodd"/><rect transform="scale(1 -1)" y="-423.386" x="388.653" ry="0" height="57.025" width="4.152" fill="#fff"/><path d="M377.027 365.253c7.438-.204 10.327 3.005 11.903 7.198l4.152-.83c1.376-2.802 2.416-5.716 10.242-6.368v-1.937H376.75z" fill="#fff" fill-rule="evenodd"/><path d="M362.87 419.068c-24.4 0-46.795 4.029-64.375 10.719v39.781h128v-40.062c-17.465-6.52-39.572-10.438-63.625-10.438z"/><path d="M323.598 425.684c7.337.204 10.186-3.004 11.74-7.197l4.096.83c1.357 2.802 2.384 5.715 10.103 6.367v1.938h-26.213z" fill="#fff" fill-rule="evenodd"/><path style="line-height:normal;-inkscape-font-specification:Sans;text-indent:0;text-align:start;text-decoration-line:none;text-transform:none;marker:none" d="M362.816 419.01c-24.456 0-46.667 4.044-64.317 10.76v.36l-.011.308.89-.022c17.396-6.493 39.442-10.406 63.438-10.406 22.16 1.219 44.95 3.765 63.678 10.45v-.346l.012-.366.013-.236c-17.533-6.545-39.595-10.502-63.703-10.502z" color="#000" font-weight="400" font-family="Sans" overflow="visible" fill="#fff"/></g></svg>